<svg xmlns="http://www.w3.org/2000/svg" width="100" height="100"><path fill="none" stroke="#000" stroke-width="2" stroke-linecap="round" stroke-linejoin="round" stroke-miterlimit="10" d="M14.16 33.607c0-3.1 2.2-7 4.9-8.5l27-15.6c2.7-1.6 7.1-1.6 9.8 0l27 15.6c2.7 1.6 4.9 5.4 4.9 8.5v31.3c0 3.1-2.2 7-4.9 8.5l-27 15.6c-2.7 1.6-7.1 1.6-9.8 0l-27-15.6c-2.7-1.6-4.9-5.4-4.9-8.5z"/><path fill="none" stroke="#000" stroke-width="2" stroke-linecap="round" stroke-linejoin="round" stroke-miterlimit="10" d="M83.76 30.807l-27.8 16c-2.7 1.6-7.1 1.6-9.8 0l-27.8-16M57.06 18.307l-11.9 17.5M49.96 22.407l-9.6 14.1M56.56 25.507l-5 7.4M51.06 55.107v34.7M70.56 50.107l-6.7 16.5M82.76 52.507l-2.2 5.5M75.56 47.607l-10.4 25.7M19.86 53.107l6.7 16.5M25.16 54.307l2.6 6.5"/></svg>